<svg width="269" height="188" viewBox="0 0 269 188" fill="none" xmlns="http://www.w3.org/2000/svg">
<path d="M117.003 21.772C117.035 16.9722 118.961 12.3759 122.367 8.9688C125.773 5.5617 130.388 3.61508 135.223 3.54637C145.591 3.42305 154.014 12.1536 153.947 22.4543L153.865 34.0292C153.852 35.7005 153.429 37.3435 152.631 38.815C151.832 40.2865 150.684 41.542 149.285 42.4721L139.786 48.7774C138.387 49.7075 137.239 50.9631 136.44 52.4346C135.642 53.9061 135.218 55.549 135.206 57.2203L135.123 70.1517" stroke="#373630" stroke-width="7.09" stroke-miterlimit="10"/>
<path d="M106.519 104.934C106.627 89.6351 113.666 71.3519 134.676 71.4917C157.567 71.6479 162.453 90.0215 162.345 105.32" stroke="#373630" stroke-width="7.09" stroke-miterlimit="10"/>
<path d="M6.85825 129.523C7.28018 129.523 7.70138 129.488 8.11704 129.416L109.525 111.733L109.625 102.262L110.08 97.7902L5.73197 115.95C4.02991 116.24 2.49927 117.153 1.44249 118.509C0.385707 119.865 -0.120374 121.565 0.0242455 123.273C0.168865 124.981 0.953673 126.573 2.22359 127.735C3.4935 128.897 5.15617 129.543 6.88309 129.547L6.85825 129.523Z" fill="#373630"/>
<path d="M262.117 128.599C261.695 128.599 261.274 128.564 260.858 128.492L159.45 110.804L159.351 101.331L159.003 96.8573L263.268 115.022C264.97 115.312 266.501 116.225 267.557 117.582C268.614 118.938 269.12 120.638 268.976 122.347C268.831 124.056 268.046 125.648 266.776 126.81C265.506 127.973 263.844 128.619 262.117 128.623V128.599Z" fill="#373630"/>
<path d="M64.8618 161.765C64.0546 161.328 63.1837 160.958 62.249 160.652C61.3143 160.347 60.4115 160.194 59.5405 160.194C58.3509 160.194 57.4056 160.478 56.7046 161.045C56.0036 161.59 55.6531 162.343 55.6531 163.303C55.6531 163.979 55.8868 164.568 56.3541 165.069C56.8214 165.571 57.4269 166.007 58.1704 166.378C58.9139 166.749 59.6998 167.098 60.5283 167.425C61.2293 167.687 61.9197 168.003 62.5995 168.374C63.3005 168.723 63.9272 169.159 64.4795 169.683C65.053 170.207 65.4991 170.861 65.8178 171.646C66.1577 172.41 66.3276 173.348 66.3276 174.46C66.3276 175.725 66.0196 176.871 65.4035 177.896C64.8087 178.921 63.9378 179.739 62.7907 180.35C61.6648 180.939 60.2946 181.233 58.6802 181.233C57.703 181.233 56.7471 181.124 55.8124 180.906C54.899 180.666 54.028 180.361 53.1995 179.99C52.3923 179.597 51.6594 179.172 51.0009 178.714L52.5304 175.998C53.0402 176.369 53.6244 176.729 54.2829 177.078C54.9414 177.405 55.6212 177.667 56.3222 177.863C57.0445 178.059 57.7243 178.158 58.3615 178.158C59.0626 178.158 59.7529 178.038 60.4327 177.798C61.1125 177.536 61.6754 177.143 62.1215 176.62C62.5676 176.074 62.7907 175.365 62.7907 174.493C62.7907 173.751 62.5889 173.13 62.1852 172.628C61.8029 172.104 61.2824 171.657 60.6239 171.286C59.9866 170.915 59.2962 170.588 58.5527 170.305C57.8305 170.021 57.0976 169.705 56.3541 169.356C55.6106 169.007 54.9202 168.592 54.2829 168.112C53.6456 167.611 53.1252 167 52.7216 166.28C52.3392 165.538 52.148 164.633 52.148 163.564C52.148 162.299 52.4348 161.197 53.0083 160.26C53.6031 159.3 54.421 158.547 55.4619 158.002C56.5028 157.456 57.703 157.151 59.0626 157.086C60.6133 157.086 61.9622 157.282 63.1093 157.675C64.2564 158.067 65.2761 158.536 66.1683 159.082L64.8618 161.765Z" fill="#787144"/>
<path d="M71.9048 161.241H75.1869V167.294H78.7556V169.945H75.1869V180.972H71.9048V169.945H69.5469V167.294H71.9048V161.241Z" fill="#787144"/>
<path d="M85.2308 167.262L85.5494 171.188L85.3901 170.665C85.7513 169.836 86.2611 169.127 86.9196 168.538C87.5781 167.949 88.2579 167.502 88.9589 167.196C89.6812 166.869 90.2866 166.705 90.7752 166.705L90.6159 170.043C89.5962 169.977 88.704 170.174 87.9393 170.632C87.1958 171.09 86.6116 171.701 86.1867 172.464C85.7619 173.228 85.5494 174.046 85.5494 174.918V180.972H82.2993V167.262H85.2308Z" fill="#787144"/>
<path d="M100.214 181.299C98.6637 181.299 97.3361 180.993 96.2314 180.383C95.1268 179.75 94.2771 178.888 93.6823 177.798C93.0875 176.685 92.7901 175.42 92.7901 174.002C92.7901 172.65 93.1194 171.428 93.7779 170.337C94.4577 169.225 95.3605 168.341 96.4863 167.687C97.6335 167.033 98.8974 166.705 100.278 166.705C102.063 166.705 103.539 167.24 104.707 168.309C105.897 169.378 106.694 170.872 107.097 172.791L96.2314 176.652L95.4667 174.689L104.166 171.483L103.496 171.908C103.242 171.232 102.838 170.643 102.286 170.141C101.733 169.618 100.979 169.356 100.023 169.356C99.2585 169.356 98.5681 169.552 97.9521 169.945C97.3573 170.316 96.8793 170.839 96.5182 171.515C96.1783 172.17 96.0084 172.944 96.0084 173.838C96.0084 174.755 96.1889 175.562 96.5501 176.26C96.9324 176.936 97.4423 177.47 98.0796 177.863C98.7381 178.256 99.471 178.452 100.278 178.452C100.852 178.452 101.393 178.343 101.903 178.125C102.434 177.907 102.934 177.634 103.401 177.307L104.899 179.794C104.197 180.252 103.433 180.623 102.604 180.906C101.797 181.168 101 181.299 100.214 181.299Z" fill="#787144"/>
<path d="M117.018 181.299C115.467 181.299 114.139 180.993 113.035 180.383C111.93 179.75 111.08 178.888 110.486 177.798C109.891 176.685 109.593 175.42 109.593 174.002C109.593 172.65 109.923 171.428 110.581 170.337C111.261 169.225 112.164 168.341 113.29 167.687C114.437 167.033 115.701 166.705 117.082 166.705C118.866 166.705 120.342 167.24 121.511 168.309C122.7 169.378 123.497 170.872 123.901 172.791L113.035 176.652L112.27 174.689L120.969 171.483L120.3 171.908C120.045 171.232 119.641 170.643 119.089 170.141C118.537 169.618 117.783 169.356 116.827 169.356C116.062 169.356 115.372 169.552 114.756 169.945C114.161 170.316 113.683 170.839 113.322 171.515C112.982 172.17 112.812 172.944 112.812 173.838C112.812 174.755 112.992 175.562 113.353 176.26C113.736 176.936 114.246 177.47 114.883 177.863C115.541 178.256 116.274 178.452 117.082 178.452C117.655 178.452 118.197 178.343 118.707 178.125C119.238 177.907 119.737 177.634 120.204 177.307L121.702 179.794C121.001 180.252 120.236 180.623 119.408 180.906C118.6 181.168 117.804 181.299 117.018 181.299Z" fill="#787144"/>
<path d="M128.819 161.241H132.101V167.294H135.669V169.945H132.101V180.972H128.819V169.945H126.461V167.294H128.819V161.241Z" fill="#787144"/>
<path d="M162.135 161.765C161.328 161.328 160.457 160.958 159.522 160.652C158.587 160.347 157.685 160.194 156.814 160.194C155.624 160.194 154.679 160.478 153.978 161.045C153.277 161.59 152.926 162.343 152.926 163.303C152.926 163.979 153.16 164.568 153.627 165.069C154.094 165.571 154.7 166.007 155.443 166.378C156.187 166.749 156.973 167.098 157.801 167.425C158.502 167.687 159.193 168.003 159.873 168.374C160.574 168.723 161.2 169.159 161.753 169.683C162.326 170.207 162.772 170.861 163.091 171.646C163.431 172.41 163.601 173.348 163.601 174.46C163.601 175.725 163.293 176.871 162.677 177.896C162.082 178.921 161.211 179.739 160.064 180.35C158.938 180.939 157.568 181.233 155.953 181.233C154.976 181.233 154.02 181.124 153.085 180.906C152.172 180.666 151.301 180.361 150.473 179.99C149.665 179.597 148.932 179.172 148.274 178.714L149.803 175.998C150.313 176.369 150.897 176.729 151.556 177.078C152.214 177.405 152.894 177.667 153.595 177.863C154.318 178.059 154.997 178.158 155.635 178.158C156.336 178.158 157.026 178.038 157.706 177.798C158.386 177.536 158.948 177.143 159.395 176.62C159.841 176.074 160.064 175.365 160.064 174.493C160.064 173.751 159.862 173.13 159.458 172.628C159.076 172.104 158.555 171.657 157.897 171.286C157.26 170.915 156.569 170.588 155.826 170.305C155.103 170.021 154.371 169.705 153.627 169.356C152.884 169.007 152.193 168.592 151.556 168.112C150.919 167.611 150.398 167 149.995 166.28C149.612 165.538 149.421 164.633 149.421 163.564C149.421 162.299 149.708 161.197 150.281 160.26C150.876 159.3 151.694 158.547 152.735 158.002C153.776 157.456 154.976 157.151 156.336 157.086C157.886 157.086 159.235 157.282 160.382 157.675C161.529 158.067 162.549 158.536 163.441 159.082L162.135 161.765Z" fill="#787144"/>
<path d="M169.178 161.241H172.46V167.294H176.029V169.945H172.46V180.972H169.178V169.945H166.82V167.294H169.178V161.241Z" fill="#787144"/>
<path d="M180.688 187.548L189.514 167.262H192.509L183.906 187.548H180.688ZM184.065 181.07L177.597 167.262H181.293L186.582 179.368L184.065 181.07Z" fill="#787144"/>
<path d="M195.567 155.548H198.849V180.972H195.567V155.548Z" fill="#787144"/>
<path d="M210.121 181.299C208.57 181.299 207.243 180.993 206.138 180.383C205.034 179.75 204.184 178.888 203.589 177.798C202.994 176.685 202.697 175.42 202.697 174.002C202.697 172.65 203.026 171.428 203.685 170.337C204.364 169.225 205.267 168.341 206.393 167.687C207.54 167.033 208.804 166.705 210.185 166.705C211.969 166.705 213.446 167.24 214.614 168.309C215.804 169.378 216.6 170.872 217.004 172.791L206.138 176.652L205.373 174.689L214.072 171.483L213.403 171.908C213.148 171.232 212.745 170.643 212.192 170.141C211.64 169.618 210.886 169.356 209.93 169.356C209.165 169.356 208.475 169.552 207.859 169.945C207.264 170.316 206.786 170.839 206.425 171.515C206.085 172.17 205.915 172.944 205.915 173.838C205.915 174.755 206.096 175.562 206.457 176.26C206.839 176.936 207.349 177.47 207.986 177.863C208.645 178.256 209.378 178.452 210.185 178.452C210.758 178.452 211.3 178.343 211.81 178.125C212.341 177.907 212.84 177.634 213.308 177.307L214.805 179.794C214.104 180.252 213.339 180.623 212.511 180.906C211.704 181.168 210.907 181.299 210.121 181.299Z" fill="#787144"/>
</svg>
