<svg width="71" height="43" viewBox="0 0 71 43" fill="none" xmlns="http://www.w3.org/2000/svg">
<rect x="27.4807" width="43" height="43" rx="21.5" fill="#373630"/>
<path d="M45.5525 10.2158C45.9856 9.87308 46.6145 9.94638 46.9572 10.3795L55.2649 20.8795C55.2679 20.8833 55.271 20.8872 55.2739 20.8911C55.2949 20.9183 55.3145 20.9466 55.3326 20.976C55.3383 20.9855 55.344 20.9952 55.3496 21.0049C55.3616 21.0257 55.3728 21.0471 55.3833 21.069C55.391 21.0856 55.3983 21.1019 55.4051 21.1184C55.414 21.1394 55.4222 21.1615 55.4297 21.1839C55.4341 21.1978 55.4383 21.2115 55.4423 21.2252C55.45 21.2516 55.4566 21.279 55.462 21.3068C55.4631 21.3129 55.4641 21.3186 55.4652 21.3243C55.4748 21.3779 55.4801 21.4335 55.4806 21.4902L55.4764 21.4071C55.4784 21.4291 55.4797 21.4512 55.4803 21.4733L55.4806 21.4902C55.4807 21.498 55.4807 21.5058 55.4806 21.5136C55.4803 21.537 55.4791 21.5605 55.4772 21.5838C55.4753 21.6073 55.4725 21.6304 55.469 21.6533C55.4668 21.6669 55.4643 21.6809 55.4616 21.6948C55.4574 21.7164 55.4525 21.7375 55.447 21.7584C55.4417 21.7773 55.436 21.7966 55.4296 21.8157C55.4243 21.8322 55.4186 21.848 55.4125 21.8636C55.4054 21.8814 55.3975 21.9 55.3891 21.9183C55.3777 21.9432 55.3657 21.9667 55.3528 21.9896C55.3274 22.0346 55.2981 22.0785 55.2649 22.1205L55.3338 22.022C55.3147 22.0531 55.2939 22.0832 55.2716 22.112L55.2649 22.1205L46.9572 32.6205C46.6145 33.0536 45.9856 33.1269 45.5525 32.7842C45.1194 32.4415 45.0461 31.8126 45.3888 31.3795L52.3977 22.52L1.00972 23.0249C0.496904 23.03 0.0704639 22.6481 0.00781962 22.1513L-5.25563e-05 22.0348C-0.00547386 21.4825 0.437825 21.0304 0.990083 21.025L52.4297 20.52L45.3888 11.6205C45.0724 11.2207 45.1106 10.654 45.459 10.2997L45.5525 10.2158Z" fill="white"/>
</svg>
