<svg width="65" height="27" viewBox="0 0 65 27" fill="none" xmlns="http://www.w3.org/2000/svg">
<path fill-rule="evenodd" clip-rule="evenodd" d="M11.8891 3.45272C11.1782 4.36667 9.95963 5.07752 8.74103 4.97597C8.63948 3.75737 9.14723 2.43721 9.85808 1.62481C10.5689 0.710853 11.9906 0 13.0061 0C13.1077 1.32016 12.5999 2.53876 11.8891 3.45272ZM13.0061 5.28063C11.9538 5.21872 10.977 5.60961 10.1906 5.92429C9.68688 6.12584 9.26132 6.29613 8.94413 6.29613C8.52904 6.29613 8.03017 6.08667 7.48557 5.858C6.83104 5.58318 6.11045 5.28063 5.38986 5.28063C3.56195 5.28063 1.93714 6.29613 0.921638 7.92094C-1.00782 11.1706 0.413886 16.045 2.24179 18.6853C3.15575 20.0054 4.17125 21.4272 5.59296 21.4272C6.21881 21.4272 6.66207 21.2218 7.12832 21.0057C7.64558 20.766 8.19114 20.5132 9.04568 20.5132C9.85365 20.5132 10.3854 20.7392 10.8907 20.954C11.4015 21.1711 11.8852 21.3767 12.5999 21.3256C14.0217 21.3256 15.0372 20.0054 15.8496 18.6853C16.8651 17.162 17.2713 15.7403 17.2713 15.6388C17.2713 15.6388 14.4279 14.5217 14.4279 11.2721C14.4279 8.79972 16.2444 7.56589 16.6759 7.27279C16.723 7.24084 16.7535 7.22007 16.7635 7.21009C15.6465 5.48373 13.717 5.28063 13.0061 5.28063ZM23.1612 21.3256V1.52326H30.5744C34.4333 1.52326 37.0736 4.16357 37.0736 8.02249C37.0736 11.8814 34.3317 14.5217 30.4728 14.5217H26.2077V21.3256H23.1612ZM26.3093 4.16357H29.8635C32.5038 4.16357 34.0271 5.58528 34.0271 8.12404C34.0271 10.6628 32.5038 12.0845 29.8635 12.0845H26.3093V4.16357ZM47.3302 18.9899C46.5178 20.5132 44.6899 21.5287 42.7604 21.5287C39.917 21.5287 37.886 19.8023 37.9876 17.162C37.9876 14.6233 39.917 13.2016 43.4713 12.9985L47.3302 12.7954V11.6783C47.3302 10.155 46.2132 9.2411 44.3852 9.2411C42.7604 9.2411 41.6434 10.0535 41.4403 11.2721H38.6984C38.8 8.63179 41.2372 6.80388 44.4868 6.80388C48.0411 6.80388 50.2752 8.63179 50.2752 11.4752V21.3256H47.4318V18.9899H47.3302ZM43.5728 19.193C41.948 19.193 40.9325 18.3806 40.9325 17.162C40.9325 15.9434 41.948 15.2326 43.8775 15.131L47.3302 14.9279V16.045C47.2287 17.8729 45.6039 19.193 43.5728 19.193ZM59.5163 22.138C58.2977 25.5907 56.876 26.7078 53.931 26.7078H52.6108V24.3721H53.5248C54.8449 24.3721 55.5558 23.8644 56.0636 22.3411L56.3682 21.4272L51.1891 7.00698H54.4387L58.0946 18.6853H58.1961L61.8519 7.00698H65L59.5163 22.138Z" fill="black"/>
</svg>
