<svg width="95" height="37" viewBox="0 0 95 37" fill="none" xmlns="http://www.w3.org/2000/svg">
<path fill-rule="evenodd" clip-rule="evenodd" d="M53.2383 25.1331C53.2383 20.0393 49.4876 12.2587 34.8764 14.2738L37.1157 7.72466H51.6708L54.3579 0H52.9024C51.5589 1.73525 49.3756 1.73525 45.7368 1.73525H36.3879L30.7898 17.8003L31.7414 18.8638C42.3219 16.5129 45.121 22.7262 45.121 27.0363C45.121 31.5704 42.3779 34.705 38.7391 34.705C36.3754 34.705 35.3404 33.3764 34.391 32.1576C33.5865 31.1248 32.8435 30.171 31.4056 30.171C30.006 30.171 28.8864 31.0666 28.8864 32.5219C28.8864 35.8245 34.8764 37 38.5152 37C47.0804 37 53.2383 31.5144 53.2383 25.1331ZM26.5912 2.57488L25.9754 1.73524H5.15029L5.03833 0.78365H3.41487L0 11.9228H1.62346C3.41487 7.89258 5.26225 7.72465 9.12497 7.72465H20.6012C13.5475 17.8563 8.17329 27.8759 5.31823 37H10.9724C13.4915 26.1967 18.4179 14.3858 26.5912 2.57488ZM85.8195 1.5953H89.9062L64.8825 36.8601H61.2437L82.8525 6.6891C80.0534 8.48032 76.8065 8.42435 73.6156 7.24885V7.64069C73.6156 13.1263 69.7529 18.7239 64.0428 18.7239C60.1241 18.7239 57.6609 16.093 57.6609 12.1188C57.6609 6.6891 62.0274 1.31542 67.7935 1.31542C69.7529 1.31542 71.2084 1.93115 72.2161 3.10664C77.9262 6.63312 80.7252 7.52873 85.8195 1.5953ZM71.0403 7.80862C71.0403 11.2231 68.5771 16.4849 65.4982 16.4849C63.7627 16.4849 62.811 14.5817 62.811 12.3986C62.811 9.26399 64.7704 3.61043 67.9613 3.61043C69.6408 3.61043 71.0403 5.34568 71.0403 7.80862ZM88.3385 19.5635C92.1452 19.5635 94.1046 22.0265 94.1046 25.8888C94.1046 31.3744 90.2418 36.972 84.5877 36.972C80.669 36.972 78.2058 34.3411 78.2058 30.3669C78.2058 24.9372 82.5724 19.5635 88.3385 19.5635ZM91.5855 26.0567C91.5855 29.4713 89.1224 34.733 86.0434 34.733C84.252 34.733 83.3003 32.8298 83.3003 30.6467C83.3003 27.5121 85.2596 21.8585 88.5066 21.8585C90.186 21.8585 91.5855 23.5938 91.5855 26.0567Z" fill="#393939"/>
</svg>
