<svg width="24" height="24" viewBox="0 0 24 24" fill="none" xmlns="http://www.w3.org/2000/svg">
<path d="M12.0001 2C13.8566 2 15.6371 2.7375 16.9498 4.05025C18.2626 5.36301 19.0001 7.14348 19.0001 9H20.0741C20.326 9.00001 20.5686 9.09507 20.7534 9.26618C20.9382 9.4373 21.0517 9.67187 21.0711 9.923L21.9171 20.923C21.9375 21.1874 21.852 21.4491 21.6795 21.6505C21.507 21.8519 21.2615 21.9766 20.9971 21.997L20.9201 22H3.08008C2.81486 22 2.56051 21.8946 2.37297 21.7071C2.18544 21.5196 2.08008 21.2652 2.08008 21L2.08308 20.923L2.92908 9.923C2.94847 9.67187 3.06193 9.4373 3.24676 9.26618C3.43159 9.09507 3.6742 9.00001 3.92608 9H5.00008C5.00008 7.14348 5.73758 5.36301 7.05033 4.05025C8.36309 2.7375 10.1436 2 12.0001 2ZM19.1471 11H4.85208L4.15908 20H19.8401L19.1471 11ZM14.0001 13V15H10.0001V13H14.0001ZM12.0001 4C10.7116 4.00007 9.47292 4.49754 8.5423 5.38866C7.61169 6.27978 7.061 7.49575 7.00508 8.783L7.00008 9H17.0001C17 7.71154 16.5025 6.47284 15.6114 5.54222C14.7203 4.61161 13.5043 4.06092 12.2171 4.005L12.0001 4Z" fill="#373630"/>
</svg>
