<svg width="92" height="14" viewBox="0 0 92 14" fill="none" xmlns="http://www.w3.org/2000/svg">
<path d="M86.1309 0.156806C86.4619 -0.0977521 86.9365 -0.035844 87.191 0.295082L91.8431 6.34278C92.0521 6.61451 92.0521 6.99288 91.8431 7.26461L87.191 13.3123C86.9365 13.6432 86.4619 13.7051 86.1309 13.4506C85.8 13.196 85.7381 12.7214 85.9927 12.3905L89.8662 7.35358L0.755962 7.35384C0.373248 7.35384 0.0569583 7.06944 0.00690104 6.70046L0 6.59788C0 6.18037 0.338456 5.84191 0.755962 5.84191L89.5497 5.84166L85.9927 1.21692C85.7612 0.916077 85.7914 0.496473 86.0474 0.231414L86.1309 0.156806Z" fill="white"/>
</svg>
